<svg width="25" height="24" viewBox="0 0 25 24" fill="none" xmlns="http://www.w3.org/2000/svg">
<path d="M24.0999 12C24.0999 18.3428 18.8621 23.5 12.3818 23.5C5.90145 23.5 0.663574 18.3428 0.663574 12C0.663574 5.65718 5.90145 0.5 12.3818 0.5C18.8621 0.5 24.0999 5.65718 24.0999 12Z" stroke="#899D9D"/>
<path d="M7.48362 13.336C6.98229 13.336 6.56096 13.224 6.21962 13C5.88896 12.776 5.64896 12.4987 5.49962 12.168C5.35029 11.8267 5.27562 11.4747 5.27562 11.112C5.27562 10.376 5.55296 9.77867 6.10762 9.32C6.66229 8.85067 7.38762 8.616 8.28362 8.616C9.33962 8.616 10.1716 8.94133 10.7796 9.592C11.3983 10.2427 11.7076 11.128 11.7076 12.248C11.7076 13.208 11.473 14.168 11.0036 15.128C10.545 16.088 9.87829 16.9467 9.00362 17.704C8.12896 18.472 7.09429 19.0373 5.89962 19.4C5.86762 19.4107 5.83562 19.3893 5.80362 19.336C5.78229 19.2827 5.79296 19.2453 5.83562 19.224C6.74229 18.808 7.51562 18.2267 8.15562 17.48C8.79562 16.744 9.27562 15.9387 9.59562 15.064C9.91562 14.2 10.0756 13.3573 10.0756 12.536C10.0756 11.992 10.0063 11.448 9.86762 10.904C9.73962 10.3493 9.52096 9.88533 9.21162 9.512C8.91296 9.13867 8.52896 8.952 8.05962 8.952C7.28096 8.952 6.89162 9.53867 6.89162 10.712C6.89162 11.3307 7.00362 11.8213 7.22762 12.184C7.45162 12.536 7.78762 12.712 8.23562 12.712C8.42762 12.712 8.60896 12.6747 8.77962 12.6C8.96096 12.5253 9.15829 12.3973 9.37162 12.216C9.38229 12.2053 9.39829 12.2 9.41962 12.2C9.45162 12.2 9.47829 12.216 9.49962 12.248C9.53162 12.28 9.54229 12.3067 9.53162 12.328C9.28629 12.6587 8.98762 12.9093 8.63562 13.08C8.28362 13.2507 7.89962 13.336 7.48362 13.336ZM13.9771 15.176C13.6785 15.176 13.4385 15.0907 13.2571 14.92C13.0865 14.7387 13.0011 14.4987 13.0011 14.2C13.0011 13.9227 13.0865 13.6987 13.2571 13.528C13.4385 13.3573 13.6785 13.272 13.9771 13.272C14.2758 13.272 14.5051 13.3573 14.6651 13.528C14.8358 13.688 14.9211 13.912 14.9211 14.2C14.9211 14.5093 14.8358 14.7493 14.6651 14.92C14.5051 15.0907 14.2758 15.176 13.9771 15.176ZM16.2656 15C16.2336 15 16.2176 14.968 16.2176 14.904C16.2176 14.84 16.2336 14.808 16.2656 14.808C16.6816 14.808 16.9856 14.7813 17.1776 14.728C17.3803 14.6747 17.519 14.5733 17.5936 14.424C17.6683 14.264 17.7056 14.024 17.7056 13.704V10.888C17.7056 10.5467 17.6683 10.3067 17.5936 10.168C17.5296 10.0187 17.407 9.944 17.2256 9.944C17.055 9.944 16.7136 10.0453 16.2016 10.248H16.1856C16.1536 10.248 16.127 10.2213 16.1056 10.168C16.0843 10.1147 16.095 10.0773 16.1376 10.056L19.0496 8.68C19.0603 8.66933 19.0763 8.664 19.0976 8.664C19.1296 8.664 19.1563 8.68 19.1776 8.712C19.199 8.73333 19.2096 8.76 19.2096 8.792V13.704C19.2096 14.0347 19.2416 14.2747 19.3056 14.424C19.3696 14.5733 19.4976 14.6747 19.6896 14.728C19.8816 14.7813 20.1856 14.808 20.6016 14.808C20.6336 14.808 20.6496 14.84 20.6496 14.904C20.6496 14.968 20.6336 15 20.6016 15C20.2176 15 19.919 14.9947 19.7056 14.984L18.4416 14.968L17.1776 14.984C16.9536 14.9947 16.6496 15 16.2656 15Z" fill="#899D9D"/>
</svg>
