<svg width="25" height="24" viewBox="0 0 25 24" fill="none" xmlns="http://www.w3.org/2000/svg">
<path d="M24.2454 12C24.2454 18.3428 19.0076 23.5 12.5273 23.5C6.04696 23.5 0.809082 18.3428 0.809082 12C0.809082 5.65718 6.04696 0.5 12.5273 0.5C19.0076 0.5 24.2454 5.65718 24.2454 12Z" stroke="#899D9D"/>
<path d="M5.4411 15C5.4091 15 5.3931 14.968 5.3931 14.904C5.3931 14.84 5.4091 14.808 5.4411 14.808C5.8571 14.808 6.1611 14.7813 6.3531 14.728C6.55577 14.6747 6.69444 14.5733 6.7691 14.424C6.84377 14.264 6.8811 14.024 6.8811 13.704V10.888C6.8811 10.5467 6.84377 10.3067 6.7691 10.168C6.7051 10.0187 6.58244 9.944 6.4011 9.944C6.23044 9.944 5.8891 10.0453 5.3771 10.248H5.3611C5.3291 10.248 5.30244 10.2213 5.2811 10.168C5.25977 10.1147 5.27044 10.0773 5.3131 10.056L8.2251 8.68C8.23577 8.66933 8.25177 8.664 8.2731 8.664C8.3051 8.664 8.33177 8.68 8.3531 8.712C8.37444 8.73333 8.3851 8.76 8.3851 8.792V13.704C8.3851 14.0347 8.4171 14.2747 8.4811 14.424C8.5451 14.5733 8.6731 14.6747 8.8651 14.728C9.0571 14.7813 9.3611 14.808 9.7771 14.808C9.8091 14.808 9.8251 14.84 9.8251 14.904C9.8251 14.968 9.8091 15 9.7771 15C9.3931 15 9.09444 14.9947 8.8811 14.984L7.6171 14.968L6.3531 14.984C6.1291 14.9947 5.8251 15 5.4411 15ZM11.7776 15.176C11.4789 15.176 11.2389 15.0907 11.0576 14.92C10.8869 14.7387 10.8016 14.4987 10.8016 14.2C10.8016 13.9227 10.8869 13.6987 11.0576 13.528C11.2389 13.3573 11.4789 13.272 11.7776 13.272C12.0763 13.272 12.3056 13.3573 12.4656 13.528C12.6363 13.688 12.7216 13.912 12.7216 14.2C12.7216 14.5093 12.6363 14.7493 12.4656 14.92C12.3056 15.0907 12.0763 15.176 11.7776 15.176ZM16.2421 18.392C16.1674 18.584 16.0554 18.712 15.9061 18.776L14.5941 19.4H14.5781C14.5461 19.4 14.5194 19.384 14.4981 19.352C14.4768 19.3307 14.4714 19.3093 14.4821 19.288L18.6421 10.344C18.6848 10.2693 18.6634 10.232 18.5781 10.232C17.0634 10.232 16.0128 10.2533 15.4261 10.296C14.8394 10.3387 14.4448 10.4293 14.2421 10.568C14.0501 10.7067 13.9061 10.9573 13.8101 11.32C13.7888 11.3413 13.7621 11.352 13.7301 11.352C13.6981 11.352 13.6661 11.3467 13.6341 11.336C13.6128 11.3147 13.6074 11.2933 13.6181 11.272L14.3381 8.392C14.3488 8.37067 14.3861 8.36533 14.4501 8.376C14.5141 8.376 14.5408 8.38667 14.5301 8.408C14.5194 8.45067 14.5141 8.504 14.5141 8.568C14.5141 8.67467 14.5621 8.744 14.6581 8.776C14.7648 8.808 14.9728 8.824 15.2821 8.824H19.5221C19.5648 8.824 19.6021 8.85067 19.6341 8.904C19.6768 8.94667 19.6874 8.98933 19.6661 9.032L16.2421 18.392Z" fill="#899D9D"/>
</svg>
