<svg width="25" height="24" viewBox="0 0 25 24" fill="none" xmlns="http://www.w3.org/2000/svg">
<path d="M24.4818 12C24.4818 18.3428 19.2439 23.5 12.7636 23.5C6.28329 23.5 1.04541 18.3428 1.04541 12C1.04541 5.65718 6.28329 0.5 12.7636 0.5C19.2439 0.5 24.4818 5.65718 24.4818 12Z" stroke="#899D9D"/>
<path d="M5.84127 14.568C6.76927 13.7147 7.44661 13.0747 7.87327 12.648C8.29994 12.2107 8.59861 11.8373 8.76927 11.528C8.95061 11.2187 9.04127 10.904 9.04127 10.584C9.04127 10.1893 8.93994 9.848 8.73727 9.56C8.53461 9.26133 8.24661 9.112 7.87327 9.112C7.47861 9.112 7.15327 9.288 6.89727 9.64C6.65194 9.98133 6.40127 10.5147 6.14527 11.24C6.14527 11.2507 6.12394 11.256 6.08127 11.256C5.98527 11.256 5.94261 11.24 5.95327 11.208L6.65727 8.472C6.65727 8.45067 6.67861 8.44 6.72127 8.44C6.75327 8.44 6.77994 8.45067 6.80127 8.472C6.83327 8.48267 6.84394 8.49333 6.83327 8.504C6.82261 8.55733 6.81727 8.62133 6.81727 8.696C6.81727 8.87733 6.89727 8.968 7.05727 8.968C7.15327 8.968 7.31327 8.93067 7.53727 8.856C7.99594 8.696 8.41727 8.616 8.80127 8.616C9.38794 8.616 9.84661 8.75467 10.1773 9.032C10.5079 9.30933 10.6733 9.67733 10.6733 10.136C10.6733 10.6907 10.4546 11.1973 10.0173 11.656C9.59061 12.104 8.99861 12.5947 8.24127 13.128L7.60127 13.608C7.56927 13.64 7.55861 13.6667 7.56927 13.688C7.59061 13.7093 7.62794 13.72 7.68127 13.72C8.53461 13.72 9.17461 13.704 9.60127 13.672C10.0386 13.64 10.3799 13.5707 10.6253 13.464C10.8813 13.3467 11.0466 13.1653 11.1213 12.92C11.1319 12.888 11.1639 12.872 11.2173 12.872C11.2813 12.872 11.3133 12.888 11.3133 12.92L10.9773 14.824C10.9773 14.8667 10.9613 14.9093 10.9293 14.952C10.9079 14.984 10.8759 15 10.8333 15H5.93727C5.89461 15 5.85727 14.968 5.82527 14.904C5.80394 14.84 5.79327 14.776 5.79327 14.712C5.79327 14.648 5.80927 14.6 5.84127 14.568ZM13.3668 15.176C13.0681 15.176 12.8281 15.0907 12.6468 14.92C12.4761 14.7387 12.3908 14.4987 12.3908 14.2C12.3908 13.9227 12.4761 13.6987 12.6468 13.528C12.8281 13.3573 13.0681 13.272 13.3668 13.272C13.6654 13.272 13.8948 13.3573 14.0548 13.528C14.2254 13.688 14.3108 13.912 14.3108 14.2C14.3108 14.5093 14.2254 14.7493 14.0548 14.92C13.8948 15.0907 13.6654 15.176 13.3668 15.176ZM18.5513 12.904C19.2979 13.0213 19.8579 13.2933 20.2313 13.72C20.6153 14.1467 20.8073 14.6373 20.8073 15.192C20.8073 15.6933 20.6259 16.2053 20.2633 16.728C19.9113 17.2507 19.3619 17.7413 18.6153 18.2C17.8793 18.6693 16.9619 19.0693 15.8633 19.4C15.8206 19.4107 15.7833 19.3893 15.7513 19.336C15.7299 19.2827 15.7406 19.2453 15.7833 19.224C16.9459 18.7547 17.7833 18.168 18.2953 17.464C18.8073 16.7707 19.0633 16.0827 19.0633 15.4C19.0633 14.7707 18.9033 14.2693 18.5833 13.896C18.2633 13.512 17.8313 13.32 17.2873 13.32C17.0739 13.32 16.8553 13.352 16.6313 13.416C16.5993 13.4267 16.5726 13.4 16.5513 13.336C16.5299 13.272 16.5353 13.2347 16.5673 13.224C17.3139 13.032 17.8579 12.744 18.1993 12.36C18.5406 11.9653 18.7113 11.416 18.7113 10.712C18.7113 10.1787 18.6313 9.77333 18.4713 9.496C18.3113 9.208 18.0766 9.064 17.7673 9.064C17.3193 9.064 16.9086 9.21867 16.5353 9.528C16.1726 9.83733 15.8739 10.2853 15.6393 10.872C15.6393 10.8827 15.6179 10.888 15.5753 10.888C15.4793 10.888 15.4366 10.8667 15.4473 10.824L16.0393 8.488C16.0606 8.46667 16.0819 8.456 16.1033 8.456C16.1353 8.456 16.1673 8.46667 16.1993 8.488C16.2313 8.49867 16.2419 8.50933 16.2313 8.52C16.2099 8.60533 16.1993 8.664 16.1993 8.696C16.1993 8.87733 16.2899 8.968 16.4713 8.968C16.5993 8.968 16.7806 8.92533 17.0153 8.84C17.2713 8.76533 17.4899 8.712 17.6713 8.68C17.8526 8.63733 18.0606 8.616 18.2953 8.616C18.9353 8.616 19.4313 8.79733 19.7833 9.16C20.1459 9.512 20.3273 9.93867 20.3273 10.44C20.3273 10.952 20.1673 11.4373 19.8473 11.896C19.5379 12.344 19.1059 12.68 18.5513 12.904Z" fill="#899D9D"/>
</svg>
