<svg width="26" height="24" viewBox="0 0 26 24" fill="none" xmlns="http://www.w3.org/2000/svg">
<path d="M24.7728 12C24.7728 18.3428 19.5349 23.5 13.0546 23.5C6.5743 23.5 1.33643 18.3428 1.33643 12C1.33643 5.65718 6.5743 0.5 13.0546 0.5C19.5349 0.5 24.7728 5.65718 24.7728 12Z" stroke="#899D9D"/>
<path d="M6.89257 11.864C8.38591 11.8853 9.47924 12.1627 10.1726 12.696C10.8766 13.2187 11.2286 13.9387 11.2286 14.856C11.2286 15.464 11.0686 16.0133 10.7486 16.504C10.4286 17.0053 9.92724 17.4853 9.24457 17.944C8.57257 18.4133 7.67657 18.8987 6.55657 19.4H6.54057C6.49791 19.4 6.46057 19.3733 6.42857 19.32C6.40724 19.2773 6.41791 19.2453 6.46057 19.224C7.61257 18.5733 8.41791 17.9173 8.87657 17.256C9.34591 16.5947 9.58057 15.8853 9.58057 15.128C9.58057 14.2427 9.31924 13.5547 8.79657 13.064C8.27391 12.5733 7.52724 12.328 6.55657 12.328C6.50324 12.328 6.46057 12.312 6.42857 12.28C6.39657 12.2373 6.38591 12.1893 6.39657 12.136L6.90857 9.288C6.91924 9.21333 6.93524 9.17067 6.95657 9.16C6.97791 9.13867 7.03124 9.12267 7.11657 9.112C8.46057 8.952 9.36191 8.84 9.82057 8.776C10.2792 8.712 10.5726 8.648 10.7006 8.584C10.8392 8.50933 10.9352 8.392 10.9886 8.232C10.9992 8.2 11.0312 8.18933 11.0846 8.2C11.1486 8.2 11.1752 8.22133 11.1646 8.264L10.8446 10.04C10.8126 10.1573 10.7646 10.2373 10.7006 10.28C10.6366 10.312 10.5352 10.328 10.3966 10.328L7.35657 10.392C7.21791 10.392 7.13791 10.4667 7.11657 10.616L6.89257 11.864ZM13.6954 15.176C13.3968 15.176 13.1568 15.0907 12.9754 14.92C12.8048 14.7387 12.7194 14.4987 12.7194 14.2C12.7194 13.9227 12.8048 13.6987 12.9754 13.528C13.1568 13.3573 13.3968 13.272 13.6954 13.272C13.9941 13.272 14.2234 13.3573 14.3834 13.528C14.5541 13.688 14.6394 13.912 14.6394 14.2C14.6394 14.5093 14.5541 14.7493 14.3834 14.92C14.2234 15.0907 13.9941 15.176 13.6954 15.176ZM15.9839 15C15.9519 15 15.9359 14.968 15.9359 14.904C15.9359 14.84 15.9519 14.808 15.9839 14.808C16.3999 14.808 16.7039 14.7813 16.8959 14.728C17.0986 14.6747 17.2373 14.5733 17.3119 14.424C17.3866 14.264 17.4239 14.024 17.4239 13.704V10.888C17.4239 10.5467 17.3866 10.3067 17.3119 10.168C17.2479 10.0187 17.1253 9.944 16.9439 9.944C16.7733 9.944 16.4319 10.0453 15.9199 10.248H15.9039C15.8719 10.248 15.8453 10.2213 15.8239 10.168C15.8026 10.1147 15.8133 10.0773 15.8559 10.056L18.7679 8.68C18.7786 8.66933 18.7946 8.664 18.8159 8.664C18.8479 8.664 18.8746 8.68 18.8959 8.712C18.9173 8.73333 18.9279 8.76 18.9279 8.792V13.704C18.9279 14.0347 18.9599 14.2747 19.0239 14.424C19.0879 14.5733 19.2159 14.6747 19.4079 14.728C19.5999 14.7813 19.9039 14.808 20.3199 14.808C20.3519 14.808 20.3679 14.84 20.3679 14.904C20.3679 14.968 20.3519 15 20.3199 15C19.9359 15 19.6373 14.9947 19.4239 14.984L18.1599 14.968L16.8959 14.984C16.6719 14.9947 16.3679 15 15.9839 15Z" fill="#899D9D"/>
</svg>
