<svg width="26" height="24" viewBox="0 0 26 24" fill="none" xmlns="http://www.w3.org/2000/svg">
<path d="M24.8272 12C24.8272 18.3428 19.5894 23.5 13.1091 23.5C6.62875 23.5 1.39087 18.3428 1.39087 12C1.39087 5.65718 6.62875 0.5 13.1091 0.5C19.5894 0.5 24.8272 5.65718 24.8272 12Z" stroke="#899D9D"/>
<path d="M8.42673 18.392C8.35206 18.584 8.24006 18.712 8.09073 18.776L6.77873 19.4H6.76273C6.73073 19.4 6.70406 19.384 6.68273 19.352C6.6614 19.3307 6.65606 19.3093 6.66673 19.288L10.8267 10.344C10.8694 10.2693 10.8481 10.232 10.7627 10.232C9.24806 10.232 8.1974 10.2533 7.61073 10.296C7.02406 10.3387 6.6294 10.4293 6.42673 10.568C6.23473 10.7067 6.09073 10.9573 5.99473 11.32C5.9734 11.3413 5.94673 11.352 5.91473 11.352C5.88273 11.352 5.85073 11.3467 5.81873 11.336C5.7974 11.3147 5.79206 11.2933 5.80273 11.272L6.52273 8.392C6.5334 8.37067 6.57073 8.36533 6.63473 8.376C6.69873 8.376 6.7254 8.38667 6.71473 8.408C6.70406 8.45067 6.69873 8.504 6.69873 8.568C6.69873 8.67467 6.74673 8.744 6.84273 8.776C6.9494 8.808 7.1574 8.824 7.46673 8.824H11.7067C11.7494 8.824 11.7867 8.85067 11.8187 8.904C11.8614 8.94667 11.8721 8.98933 11.8507 9.032L8.42673 18.392ZM13.5716 15.176C13.2729 15.176 13.0329 15.0907 12.8516 14.92C12.6809 14.7387 12.5956 14.4987 12.5956 14.2C12.5956 13.9227 12.6809 13.6987 12.8516 13.528C13.0329 13.3573 13.2729 13.272 13.5716 13.272C13.8703 13.272 14.0996 13.3573 14.2596 13.528C14.4303 13.688 14.5156 13.912 14.5156 14.2C14.5156 14.5093 14.4303 14.7493 14.2596 14.92C14.0996 15.0907 13.8703 15.176 13.5716 15.176ZM15.7961 14.568C16.7241 13.7147 17.4014 13.0747 17.8281 12.648C18.2548 12.2107 18.5534 11.8373 18.7241 11.528C18.9054 11.2187 18.9961 10.904 18.9961 10.584C18.9961 10.1893 18.8948 9.848 18.6921 9.56C18.4894 9.26133 18.2014 9.112 17.8281 9.112C17.4334 9.112 17.1081 9.288 16.8521 9.64C16.6068 9.98133 16.3561 10.5147 16.1001 11.24C16.1001 11.2507 16.0788 11.256 16.0361 11.256C15.9401 11.256 15.8974 11.24 15.9081 11.208L16.6121 8.472C16.6121 8.45067 16.6334 8.44 16.6761 8.44C16.7081 8.44 16.7348 8.45067 16.7561 8.472C16.7881 8.48267 16.7988 8.49333 16.7881 8.504C16.7774 8.55733 16.7721 8.62133 16.7721 8.696C16.7721 8.87733 16.8521 8.968 17.0121 8.968C17.1081 8.968 17.2681 8.93067 17.4921 8.856C17.9508 8.696 18.3721 8.616 18.7561 8.616C19.3428 8.616 19.8014 8.75467 20.1321 9.032C20.4628 9.30933 20.6281 9.67733 20.6281 10.136C20.6281 10.6907 20.4094 11.1973 19.9721 11.656C19.5454 12.104 18.9534 12.5947 18.1961 13.128L17.5561 13.608C17.5241 13.64 17.5134 13.6667 17.5241 13.688C17.5454 13.7093 17.5828 13.72 17.6361 13.72C18.4894 13.72 19.1294 13.704 19.5561 13.672C19.9934 13.64 20.3348 13.5707 20.5801 13.464C20.8361 13.3467 21.0014 13.1653 21.0761 12.92C21.0868 12.888 21.1188 12.872 21.1721 12.872C21.2361 12.872 21.2681 12.888 21.2681 12.92L20.9321 14.824C20.9321 14.8667 20.9161 14.9093 20.8841 14.952C20.8628 14.984 20.8308 15 20.7881 15H15.8921C15.8494 15 15.8121 14.968 15.7801 14.904C15.7588 14.84 15.7481 14.776 15.7481 14.712C15.7481 14.648 15.7641 14.6 15.7961 14.568Z" fill="#899D9D"/>
</svg>
