<svg width="25" height="24" viewBox="0 0 25 24" fill="none" xmlns="http://www.w3.org/2000/svg">
<path d="M24.2273 12C24.2273 18.3428 18.9894 23.5 12.5091 23.5C6.02877 23.5 0.790894 18.3428 0.790894 12C0.790894 5.65718 6.02877 0.5 12.5091 0.5C18.9894 0.5 24.2273 5.65718 24.2273 12Z" stroke="#899D9D"/>
<path d="M10.7055 14.232C10.7375 14.232 10.7535 14.3173 10.7535 14.488C10.7535 14.6053 10.7429 14.7173 10.7215 14.824C10.7109 14.9307 10.6949 14.984 10.6735 14.984L9.61754 14.936V17.16C9.61754 17.2667 9.57487 17.3413 9.48954 17.384L8.22554 18.008C8.16154 18.0293 8.12954 18.04 8.12954 18.04C8.09754 18.04 8.08154 17.9973 8.08154 17.912V14.888C7.44154 14.8773 6.25754 14.872 4.52954 14.872C4.4762 14.872 4.43354 14.8507 4.40154 14.808C4.36954 14.7653 4.37487 14.7227 4.41754 14.68L9.37754 8.664C9.39887 8.64267 9.43087 8.632 9.47354 8.632C9.50554 8.632 9.53754 8.64267 9.56954 8.664C9.60154 8.67467 9.61754 8.696 9.61754 8.728V14.264C9.83087 14.264 10.1935 14.2533 10.7055 14.232ZM5.48954 14.328C6.72687 14.328 7.59087 14.3227 8.08154 14.312V11.08L5.40954 14.216C5.34554 14.2907 5.3722 14.328 5.48954 14.328ZM12.9624 15.176C12.6637 15.176 12.4237 15.0907 12.2424 14.92C12.0717 14.7387 11.9864 14.4987 11.9864 14.2C11.9864 13.9227 12.0717 13.6987 12.2424 13.528C12.4237 13.3573 12.6637 13.272 12.9624 13.272C13.2611 13.272 13.4904 13.3573 13.6504 13.528C13.8211 13.688 13.9064 13.912 13.9064 14.2C13.9064 14.5093 13.8211 14.7493 13.6504 14.92C13.4904 15.0907 13.2611 15.176 12.9624 15.176ZM15.1869 14.568C16.1149 13.7147 16.7922 13.0747 17.2189 12.648C17.6456 12.2107 17.9442 11.8373 18.1149 11.528C18.2962 11.2187 18.3869 10.904 18.3869 10.584C18.3869 10.1893 18.2856 9.848 18.0829 9.56C17.8802 9.26133 17.5922 9.112 17.2189 9.112C16.8242 9.112 16.4989 9.288 16.2429 9.64C15.9976 9.98133 15.7469 10.5147 15.4909 11.24C15.4909 11.2507 15.4696 11.256 15.4269 11.256C15.3309 11.256 15.2882 11.24 15.2989 11.208L16.0029 8.472C16.0029 8.45067 16.0242 8.44 16.0669 8.44C16.0989 8.44 16.1256 8.45067 16.1469 8.472C16.1789 8.48267 16.1896 8.49333 16.1789 8.504C16.1682 8.55733 16.1629 8.62133 16.1629 8.696C16.1629 8.87733 16.2429 8.968 16.4029 8.968C16.4989 8.968 16.6589 8.93067 16.8829 8.856C17.3416 8.696 17.7629 8.616 18.1469 8.616C18.7336 8.616 19.1922 8.75467 19.5229 9.032C19.8536 9.30933 20.0189 9.67733 20.0189 10.136C20.0189 10.6907 19.8002 11.1973 19.3629 11.656C18.9362 12.104 18.3442 12.5947 17.5869 13.128L16.9469 13.608C16.9149 13.64 16.9042 13.6667 16.9149 13.688C16.9362 13.7093 16.9736 13.72 17.0269 13.72C17.8802 13.72 18.5202 13.704 18.9469 13.672C19.3842 13.64 19.7256 13.5707 19.9709 13.464C20.2269 13.3467 20.3922 13.1653 20.4669 12.92C20.4776 12.888 20.5096 12.872 20.5629 12.872C20.6269 12.872 20.6589 12.888 20.6589 12.92L20.3229 14.824C20.3229 14.8667 20.3069 14.9093 20.2749 14.952C20.2536 14.984 20.2216 15 20.1789 15H15.2829C15.2402 15 15.2029 14.968 15.1709 14.904C15.1496 14.84 15.1389 14.776 15.1389 14.712C15.1389 14.648 15.1549 14.6 15.1869 14.568Z" fill="#899D9D"/>
</svg>
